<?xml version="1.0" encoding="UTF-8" standalone="no"?>
<svg
   xmlns:dc="http://purl.org/dc/elements/1.1/"
   xmlns:cc="http://creativecommons.org/ns#"
   xmlns:rdf="http://www.w3.org/1999/02/22-rdf-syntax-ns#"
   xmlns:svg="http://www.w3.org/2000/svg"
   xmlns="http://www.w3.org/2000/svg"
   xmlns:sodipodi="http://sodipodi.sourceforge.net/DTD/sodipodi-0.dtd"
   xmlns:inkscape="http://www.inkscape.org/namespaces/inkscape"
   id="svg14"
   height="300.75pt"
   width="312.44135pt"
   viewBox="0 0 312.44135 300.75"
   version="1.1"
   sodipodi:docname="g2logo_hover.svg"
   inkscape:version="0.92.4 (5da689c313, 2019-01-14)">
  <sodipodi:namedview
     pagecolor="#ffffff"
     bordercolor="#666666"
     borderopacity="1"
     objecttolerance="10"
     gridtolerance="10"
     guidetolerance="10"
     inkscape:pageopacity="0"
     inkscape:pageshadow="2"
     inkscape:window-width="1920"
     inkscape:window-height="1027"
     id="namedview10"
     showgrid="false"
     inkscape:zoom="0.58852868"
     inkscape:cx="208.29423"
     inkscape:cy="200.5"
     inkscape:window-x="-8"
     inkscape:window-y="10"
     inkscape:window-maximized="1"
     inkscape:current-layer="svg14" />
  <metadata
     id="metadata20">
    <rdf:RDF>
      <cc:Work
         rdf:about="">
        <dc:format>image/svg+xml</dc:format>
        <dc:type
           rdf:resource="http://purl.org/dc/dcmitype/StillImage" />
        <dc:title />
        <dc:title />
      </cc:Work>
    </rdf:RDF>
  </metadata>
  <defs
     id="defs18" />
  <path
     style="display:inline;fill:#08ffcd;fill-opacity:1;opacity:0.47"
     id="path4"
     d="m 156.35831,0 c 34.69,20.06 69.45,39.99 104.07,60.15 l -0.54,0.33 c -15.6,9.14 -31.29,18.11 -46.91,27.21 -1.68,0.97 -3.44,1.78 -5.24,2.52 -1.14,-0.78 -2.29,-1.55 -3.48,-2.25 -16.07,-9.21 -32.12,-18.49 -48.15,-27.78 0.53,-20.03 0.03,-40.13 0.25,-60.18 z" />
  <path
     style="display:inline;opacity:0.26;fill:#08ffcd;fill-opacity:1"
     id="path6"
     d="m 0.1083058,30.3 c 2.81,1.4 5.52,2.97 8.22,4.58 14.7800002,8.6 29.6500002,17.06 44.4500002,25.63 -0.15,3.15 -0.21,6.29 -0.19,9.44 0.07,36.65 -0.07,73.35 0.07,109.99 3.01,-1.45 5.88,-3.16 8.75,-4.86 14.2,-8.26 28.44,-16.45 42.640004,-24.71 17.38,-9.98 34.74,-19.99 52.1,-30.02 0.02,20.05 -0.02,40.1 0.01,60.15 14.9,-8.68 29.84,-17.28 44.79,-25.87 2.35,-1.31 4.68,-2.63 6.87,-4.2 3.25,1.28 6.06,3.19 9.09,4.89 14.35,8.26 28.65,16.62 42.99,24.9 0.11,-39.91 0.14,-79.83 -0.01,-119.74 l 0.54,-0.33 c 17.22,-10.09 34.52,-20.11 51.92,-29.89 0.16,57.54 0,115.14 0.08,172.69 0.04,2.6 -0.01,5.18 -0.18,7.77 -14.54,8.57 -29.23,16.9 -43.85,25.35 -37.31,21.51 -74.77,43.35 -112.17,64.68 -3.46,-1.71 -6.71,-3.76 -10.06,-5.68 -23.25,-13.43 -46.550004,-26.76 -69.750004,-40.26 -25.35,-14.77 -50.91,-29.23 -76.2200002,-44.05 -0.18,-2.61 -0.23,-5.2 -0.18,-7.81 0.09,-57.53 -0.1,-115.13 0.09,-172.65 z" />
  <path
     style="fill:#08ffcd;fill-opacity:1;opacity:0.399"
     id="path8"
     d="m 52.778306,60.51 c 17.1,9.86 34.15,19.82 51.280004,29.62 -0.04,20.08 -0.01,40.16 -0.01,60.24 -14.200004,8.26 -28.440004,16.45 -42.640004,24.71 -2.87,1.7 -5.74,3.41 -8.75,4.86 -0.14,-36.64 0,-73.34 -0.07,-109.99 -0.02,-3.15 0.04,-6.29 0.19,-9.44 z" />
  <path
     style="fill:#08ffcd;fill-opacity:1;opacity:1"
     id="path10"
     d="m 156.10831,60.18 c 16.03,9.29 32.08,18.57 48.15,27.78 1.19,0.7 2.34,1.47 3.48,2.25 -0.44,13.23 -0.07,26.5 -0.19,39.74 0.13,6.81 -0.31,13.69 0.27,20.48 -2.19,1.57 -4.52,2.89 -6.87,4.2 -14.95,8.59 -29.89,17.19 -44.79,25.87 -0.03,-20.05 0.01,-40.1 -0.01,-60.15 -17.36,10.03 -34.72,20.04 -52.1,30.02 0,-20.08 -0.03,-40.16 0.01,-60.24 17.38,-9.94 34.69,-19.99 52.05,-29.95 z" />
  <path
     style="fill:#08ffcd;fill-opacity:1;opacity:0.709"
     id="path12"
     d="m 259.88831,60.48 c 0.15,39.91 0.12,79.83 0.01,119.74 -14.34,-8.28 -28.64,-16.64 -42.99,-24.9 -3.03,-1.7 -5.84,-3.61 -9.09,-4.89 -0.58,-6.79 -0.14,-13.67 -0.27,-20.48 0.12,-13.24 -0.25,-26.51 0.19,-39.74 1.8,-0.74 3.56,-1.55 5.24,-2.52 15.62,-9.1 31.31,-18.07 46.91,-27.21 z" />
</svg>
