<?xml version="1.0" encoding="UTF-8" standalone="no"?>
<!DOCTYPE svg PUBLIC "-//W3C//DTD SVG 1.1//EN" "http://www.w3.org/Graphics/SVG/1.1/DTD/svg11.dtd">
<svg xmlns="http://www.w3.org/2000/svg" version="1.1" viewBox="0 0 500 500" width="500.0pt" height="500.0pt">
<path d="M 0.00 0.00 L 500.00 0.00 L 500.00 500.00 L 0.00 500.00 L 0.00 0.00 Z" fill="#ffffff" />
<path d="M 250.09 99.05 C 284.78 119.11 319.54 139.04 354.16 159.20 L 353.62 159.53 C 338.02 168.67 322.33 177.64 306.71 186.74 C 305.03 187.71 303.27 188.52 301.47 189.26 C 300.33 188.48 299.18 187.71 297.99 187.01 C 281.92 177.80 265.87 168.52 249.84 159.23 C 250.37 139.20 249.87 119.10 250.09 99.05 Z" fill="#7fecd6" />
<path d="M 93.84 129.35 C 96.65 130.75 99.36 132.32 102.06 133.93 C 116.84 142.53 131.71 150.99 146.51 159.56 C 146.36 162.71 146.30 165.85 146.32 169.00 C 146.39 205.65 146.25 242.35 146.39 278.99 C 149.40 277.54 152.27 275.83 155.14 274.13 C 169.34 265.87 183.58 257.68 197.78 249.42 C 215.16 239.44 232.52 229.43 249.88 219.40 C 249.90 239.45 249.86 259.50 249.89 279.55 C 264.79 270.87 279.73 262.27 294.68 253.68 C 297.03 252.37 299.36 251.05 301.55 249.48 C 304.80 250.76 307.61 252.67 310.64 254.37 C 324.99 262.63 339.29 270.99 353.63 279.27 C 353.74 239.36 353.77 199.44 353.62 159.53 L 354.16 159.20 C 371.38 149.11 388.68 139.09 406.08 129.31 C 406.24 186.85 406.08 244.45 406.16 302.00 C 406.20 304.60 406.15 307.18 405.98 309.77 C 391.44 318.34 376.75 326.67 362.13 335.12 C 324.82 356.63 287.36 378.47 249.96 399.80 C 246.50 398.09 243.25 396.04 239.90 394.12 C 216.65 380.69 193.35 367.36 170.15 353.86 C 144.80 339.09 119.24 324.63 93.93 309.81 C 93.75 307.20 93.70 304.61 93.75 302.00 C 93.84 244.47 93.65 186.87 93.84 129.35 Z" fill="#b2f4e7" />
<path d="M 146.51 159.56 C 163.61 169.42 180.66 179.38 197.79 189.18 C 197.75 209.26 197.78 229.34 197.78 249.42 C 183.58 257.68 169.34 265.87 155.14 274.13 C 152.27 275.83 149.40 277.54 146.39 278.99 C 146.25 242.35 146.39 205.65 146.32 169.00 C 146.30 165.85 146.36 162.71 146.51 159.56 Z" fill="#7fecd6" />
<path d="M 249.84 159.23 C 265.87 168.52 281.92 177.80 297.99 187.01 C 299.18 187.71 300.33 188.48 301.47 189.26 C 301.03 202.49 301.40 215.76 301.28 229.00 C 301.41 235.81 300.97 242.69 301.55 249.48 C 299.36 251.05 297.03 252.37 294.68 253.68 C 279.73 262.27 264.79 270.87 249.89 279.55 C 249.86 259.50 249.90 239.45 249.88 219.40 C 232.52 229.43 215.16 239.44 197.78 249.42 C 197.78 229.34 197.75 209.26 197.79 189.18 C 215.17 179.24 232.48 169.19 249.84 159.23 Z" fill="#00daae" />
<path d="M 353.62 159.53 C 353.77 199.44 353.74 239.36 353.63 279.27 C 339.29 270.99 324.99 262.63 310.64 254.37 C 307.61 252.67 304.80 250.76 301.55 249.48 C 300.97 242.69 301.41 235.81 301.28 229.00 C 301.40 215.76 301.03 202.49 301.47 189.26 C 303.27 188.52 305.03 187.71 306.71 186.74 C 322.33 177.64 338.02 168.67 353.62 159.53 Z" fill="#40e3c2" />
</svg>